<svg viewBox="0 0 72 72" xmlns="http://www.w3.org/2000/svg"><title>box-icon-tick</title><path d="M46.244 62.277c0 .28-.222.505-.5.505h-35.832c-.278 0-.5-.225-.5-.505v-35.03c0-.277.222-.505.5-.505h27.816c.729-1.155 1.471-2.295 2.229-3.423h-30.045c-2.156 0-3.911 1.762-3.911 3.928v35.03c0 2.167 1.755 3.929 3.911 3.929h35.832c2.156 0 3.911-1.762 3.911-3.929v-31.663c-1.184 1.8-2.322 3.625-3.411 5.474v26.188zm19.041-55.865c-.794 0-2.262.142-4.402.424-2.142.284-3.524.555-4.149.816-.625.26-1.756 1.152-3.391 2.68-1.634 1.526-4.005 4.351-7.106 8.467-3.102 4.119-6.002 8.468-8.696 13.049-2.694 4.586-5.206 9.34-7.539 14.272-2.157-3.468-4.109-5.825-5.86-7.067-1.749-1.239-3.224-1.86-4.421-1.86-.938 0-2.11.467-3.525 1.403-1.414.935-2.117 1.855-2.117 2.758 0 .653.645 1.622 1.945 2.909 2.57 2.548 4.842 5.256 6.811 8.118 1.201 1.714 1.999 2.763 2.396 3.148.395.38 1.605.574 3.624.574 2.809 0 4.479-.34 5.007-1.019.526-.653 1.5-2.611 2.918-5.867 3.509-8.162 7.867-15.951 13.082-23.368 5.214-7.414 9.995-13.025 14.343-16.824.864-.722 1.386-1.193 1.566-1.407.181-.213.273-.434.273-.663 0-.36-.254-.542-.758-.542z" fill="#ED0088"/></svg>