<svg viewBox="0 0 72 72" xmlns="http://www.w3.org/2000/svg"><title>box-icon-old-phone</title><path d="M63.038 46.557c.013-.345-.122-.675-.371-.912l-12.008-11.369c-.24-.227-.562-.341-.894-.32-.328.024-.631.184-.837.444-.621.784-2.777 3.014-4.49 3.014-.469 0-.862-.169-1.244-.535-3.021-2.899-9.401-9.453-9.439-9.489-.083-.096-1.991-2.38 1.531-6.965.337-.441.328-1.056-.026-1.485l-9.495-11.509c-.371-.448-1.01-.562-1.51-.264-.253.151-6.187 3.747-7.281 10.324-.738 4.439.906 9.076 4.889 13.785l.063.071 15.249 15.329c.208.232 5.205 5.698 12.919 5.698.669 0 1.336-.054 2.005-.138.249 1.287.324 4.192-2.856 7.389-1.373 1.381-2.993 1.636-4.126 1.605-2.094-.058-4.333-1.14-5.837-2.827l-.055-.056-17.216-17.762-.172-.156c-1.823-1.485-6.303-3.307-10.219.396-3.848 3.631-2.64 8.316-1.465 10.286.082.14.183.267.296.381l6.998 7.036c.769.772 2.015.772 2.783 0 .769-.772.769-2.025 0-2.796l-6.799-6.836c-.339-.682-1.311-3.119.88-5.188 2.185-2.065 4.402-.685 4.979-.26l17.09 17.632c2.234 2.486 5.457 4.021 8.63 4.106l.295.005c2.599 0 4.918-.954 6.722-2.767 4.508-4.532 4.352-8.953 3.893-11.116 2.257-.82 4.49-2.102 6.677-3.869.267-.214.427-.535.441-.878" fill="#D4D8D9"/></svg>