<svg viewBox="0 0 72 72" xmlns="http://www.w3.org/2000/svg"><title>box-icon-aon</title><path d="M40.605 6h-15.604c-2.752 0-5.001 2.252-5.001 5v50.002c0 2.75 2.25 4.998 5.001 4.998h21.998c2.75 0 5-2.248 5-4.998v-37.043c-.33.027-.663.041-1 .041-.337 0-.67-.014-1-.041v32.041h-28v-40h17.683c-.442-1.251-.683-2.597-.683-4h-6.002c-.55 0-.998-.449-.998-1.001 0-.553.448-.999.998-.999h6.001l.165.013c.24-1.441.737-2.795 1.442-4.013zm-4.607 58c-1.656 0-2.999-1.342-2.999-2.999 0-1.658 1.342-3.001 2.999-3.001 1.659 0 3.001 1.343 3.001 3.001 0 1.657-1.342 2.999-3.001 2.999zm15.002-43c4.971 0 9-4.029 9-9s-4.029-9-9-9-9 4.029-9 9 4.029 9 9 9zm-1.417-5.393h2.01v1.875h-2.01v-1.875zm-2.385-5.43c0-.55.082-1.05.248-1.5.165-.45.405-.835.72-1.155.315-.32.695-.567 1.14-.742.445-.175.942-.263 1.492-.263.46 0 .887.067 1.282.202s.74.33 1.035.585c.295.255.527.572.697.953.17.38.255.81.255 1.29 0 .35-.037.652-.113.908-.075.255-.175.475-.3.66-.125.185-.267.35-.428.495l-.48.428c-.19.16-.365.315-.525.465-.16.15-.3.317-.42.503-.12.185-.212.402-.278.652-.065.25-.097.555-.097.915h-1.62c0-.44.022-.812.068-1.117.045-.305.117-.572.218-.803.1-.23.222-.432.367-.607s.317-.347.517-.518l.458-.39c.145-.12.275-.252.39-.397.115-.145.205-.307.27-.488.065-.18.098-.395.098-.645 0-.3-.052-.557-.158-.772-.105-.215-.232-.387-.382-.518-.15-.13-.31-.225-.48-.285-.17-.06-.32-.09-.45-.09-.62 0-1.077.202-1.372.608-.295.405-.443.947-.443 1.627h-1.71z" fill="#D4D8D9"/></svg>