<svg width="72" height="72" viewBox="0 0 72 72" xmlns="http://www.w3.org/2000/svg" xmlns:sketch="http://www.bohemiancoding.com/sketch/ns"><title>box-icon-apn</title><path d="M11.669 27.218c0 6.511 2.538 12.634 7.148 17.241l-3.977 3.977c-5.673-5.669-8.796-13.206-8.796-21.218 0-8.013 3.12-15.549 8.789-21.211l3.977 3.977c-4.607 4.6-7.141 10.723-7.141 17.234zm15.754-8.621l-3.977-3.977c-3.362 3.369-5.215 7.844-5.215 12.598 0 4.761 1.853 9.236 5.222 12.598l3.977-3.977c-2.307-2.3-3.574-5.361-3.574-8.621 0-3.252 1.267-6.313 3.567-8.62zm29.824-12.598l-3.977 3.977c4.611 4.607 7.148 10.73 7.148 17.241 0 6.511-2.534 12.634-7.137 17.241l3.977 3.977c5.665-5.669 8.785-13.206 8.785-21.218 0-8.02-3.124-15.557-8.796-21.218zm-21.204 15.593c-3.105 0-5.625 2.52-5.625 5.625 0 2.08 1.139 3.875 2.812 4.845v33.937h5.625v-33.933c1.674-.974 2.813-2.769 2.813-4.849 0-3.105-2.516-5.625-5.625-5.625zm12.59-6.973l-3.977 3.977c2.303 2.307 3.574 5.369 3.574 8.621 0 3.259-1.267 6.321-3.567 8.621l3.977 3.977c3.362-3.362 5.215-7.837 5.215-12.598 0-4.761-1.853-9.229-5.222-12.598z" sketch:type="MSShapeGroup" fill="#D4D8D9"/></svg>