<svg viewBox="0 0 72 72" xmlns="http://www.w3.org/2000/svg" xmlns:sketch="http://www.bohemiancoding.com/sketch/ns"><title>box-icon-faq</title><path d="M12.816 26.844v17.136h3.768v-7.08h7.176v-2.928h-7.176v-3.96h8.28v-3.168h-12.048zm17.592 0l-6.48 17.136h3.792l1.344-3.816h6.408l1.296 3.816h3.912l-6.408-17.136h-3.864zm-.36 10.512l2.232-6.288h.048l2.16 6.288h-4.44zm23.952 6.024c-1.136.656-2.52.984-4.152.984-1.312 0-2.492-.228-3.54-.684-1.048-.456-1.932-1.084-2.652-1.884-.72-.8-1.272-1.74-1.656-2.82-.384-1.08-.576-2.244-.576-3.492 0-1.28.192-2.468.576-3.564.384-1.096.936-2.052 1.656-2.868.72-.816 1.604-1.456 2.652-1.92 1.048-.464 2.228-.696 3.54-.696 1.328 0 2.512.232 3.552.696 1.04.464 1.92 1.104 2.64 1.92.72.816 1.272 1.772 1.656 2.868.384 1.096.576 2.284.576 3.564 0 1.248-.192 2.408-.576 3.48-.384 1.072-.936 2.016-1.656 2.832l2.136 1.944-1.752 1.824-2.424-2.184zm-.552-3.96c.32-.432.576-.968.768-1.608.192-.64.288-1.416.288-2.328 0-.752-.084-1.48-.252-2.184-.168-.704-.436-1.332-.804-1.884-.368-.552-.848-.992-1.44-1.32-.592-.328-1.312-.492-2.16-.492-.848 0-1.568.164-2.16.492-.592.328-1.072.768-1.44 1.32-.368.552-.636 1.18-.804 1.884-.168.704-.252 1.432-.252 2.184 0 .72.084 1.42.252 2.1.168.68.436 1.292.804 1.836.368.544.848.98 1.44 1.308.592.328 1.312.492 2.16.492.4 0 .704-.016.912-.048.208-.032.408-.096.6-.192l-1.608-1.464 1.752-1.872 1.944 1.776z" sketch:type="MSShapeGroup" fill="#ED0088"/></svg>