<svg width="72" height="72" viewBox="0 0 72 72" xmlns="http://www.w3.org/2000/svg" xmlns:sketch="http://www.bohemiancoding.com/sketch/ns"><title>box-icon-usb-modem</title><path d="M30.176 56.69v9.31h11.647v-9.31h3.176v-47.586c0-1.912-1.194-3.103-3.176-3.103h-11.647c-1.983 0-3.176 1.191-3.176 3.103v47.586h3.176zm4.235-41.897c0-.857.711-1.552 1.588-1.552.877 0 1.588.695 1.588 1.552 0 .857-.711 1.552-1.588 1.552-.877 0-1.588-.695-1.588-1.552zm0 5.172c0-.857.711-1.552 1.588-1.552.877 0 1.588.695 1.588 1.552 0 .857-.711 1.552-1.588 1.552-.877 0-1.588-.695-1.588-1.552zm0 5.172c0-.857.711-1.552 1.588-1.552.877 0 1.588.695 1.588 1.552 0 .857-.711 1.552-1.588 1.552-.877 0-1.588-.695-1.588-1.552zm-1.478 15.95v-1.615h-2.906v-1.296l2.985-4.067h1.247v4.197h.913v1.166h-.913v1.615h-1.325zm8.296 0l-.157-.808c-.275.359-.579.61-.913.753-.334.143-.671.214-1.011.214-.537 0-1.019-.095-1.448-.284-.429-.189-.79-.45-1.085-.783-.295-.332-.52-.723-.677-1.171-.157-.449-.236-.932-.236-1.451 0-.532.079-1.025.236-1.48.157-.455.383-.852.677-1.191.295-.339.656-.605 1.085-.798.429-.193.911-.289 1.448-.289.36 0 .709.055 1.046.164.337.11.641.271.913.484.272.213.496.475.673.788.177.312.285.671.324 1.077h-1.473c-.092-.399-.268-.698-.53-.897-.262-.199-.579-.299-.952-.299-.347 0-.641.068-.884.204-.242.136-.439.319-.589.548-.151.229-.26.49-.329.783-.069.292-.103.595-.103.907 0 .299.034.59.103.872.069.282.178.537.329.763.151.226.347.407.589.543.242.136.537.204.884.204.511 0 .905-.131 1.183-.394s.44-.643.486-1.141h-1.551v-1.166h2.945v3.848h-.982zm-10.87 6.712v-5.141h1.13v4.19h2.506v.95h-3.636zm4.745 0v-4.19h-1.541v-.95h4.212v.95h-1.541v4.19h-1.13zm3.262 0v-5.141h3.845v.95h-2.714v1.102h2.491v.878h-2.491v1.26h2.772v.95h-3.902zm-5.433-9.494v-2.423h-.029l-1.777 2.423h1.807z" sketch:type="MSShapeGroup" fill="#ED0088"/></svg>