<svg width="72" height="72" viewBox="0 0 72 72" xmlns="http://www.w3.org/2000/svg" xmlns:sketch="http://www.bohemiancoding.com/sketch/ns"><title>box-icon-site-migration-cdma</title><desc>Created with Sketch.</desc><path d="M7.997 17.667c-1.103 0-1.997.887-1.997 2.006v2.988c0 1.108.892 2.006 1.997 2.006h47.003v4.998c0 1.658.947 2.054 2.121.881l8.879-8.879-8.97-9.785c-1.121-1.223-2.03-.876-2.03.787v4.998h-47.003zm-1.997 24.068l8.879 8.879c1.171 1.171 2.121.782 2.121-.881v-4.998h47.003c1.103 0 1.997-.887 1.997-2.006v-2.988c0-1.108-.892-2.006-1.997-2.006h-47.003v-4.998c0-1.658-.91-2.009-2.03-.787l-8.97 9.785zm20.044 8.241c.82-.829 1.864-1.244 3.131-1.244 1.695 0 2.935.556 3.719 1.668.433.624.665 1.251.697 1.88h-2.105c-.137-.483-.312-.848-.526-1.094-.383-.438-.95-.656-1.702-.656-.766 0-1.369.309-1.812.926-.442.618-.663 1.491-.663 2.622 0 1.13.234 1.977.701 2.54.467.563 1.061.844 1.781.844.738 0 1.301-.242 1.688-.725.214-.26.392-.649.533-1.169h2.085c-.182 1.098-.648 1.992-1.398 2.68-.75.688-1.71 1.032-2.881 1.032-1.449 0-2.589-.465-3.418-1.395-.829-.934-1.244-2.215-1.244-3.842 0-1.759.472-3.115 1.415-4.067zm15.032-.834c.706.232 1.278.659 1.716 1.278.351.501.59 1.044.718 1.627s.191 1.139.191 1.668c0 1.34-.269 2.475-.807 3.404-.729 1.253-1.855 1.88-3.377 1.88h-4.341v-10.076h4.341c.624.009 1.144.082 1.559.219zm-3.855 1.531v6.576h1.941c.993 0 1.686-.49 2.078-1.47.214-.538.321-1.178.321-1.921 0-1.025-.161-1.813-.482-2.362-.321-.549-.96-.824-1.917-.824h-1.941zm14.745-1.75h3.028v10.076h-1.962v-6.815l.007-.824.007-.817-1.907 8.456h-2.044l-1.894-8.456.007.817.007.824v6.815h-1.962v-10.076h3.063l1.832 7.923 1.818-7.923zm7.868 0h2.379l3.568 10.076h-2.283l-.649-2.071h-3.712l-.697 2.071h-2.201l3.596-10.076zm-.13 6.269h2.557l-1.258-3.965-1.299 3.965z" sketch:type="MSShapeGroup" fill="#D4D8D9"/></svg>