<svg width="72" height="72" viewBox="0 0 72 72" xmlns="http://www.w3.org/2000/svg" xmlns:sketch="http://www.bohemiancoding.com/sketch/ns"><title>box-icon-lang</title><path d="M26.009 30.578c-2.466 2.029-5.704 4.001-9.975 5.689l-.985-2.475c3.825-1.511 6.732-3.256 8.954-5.041-2.705-2.736-4.152-5.457-4.919-7.625h2.857c.729 1.713 1.973 3.761 4.058 5.844 3.704-3.713 4.738-7.319 5.025-9.098h-16.82v-2.811h10.173v-3.18h2.822v3.18h10.173v2.811h-3.645c-.256 2.071-1.327 6.459-5.716 10.891.475.379.989.757 1.529 1.131.539-.717 1.391-1.187 2.359-1.187h12.823c.242-1.208.374-2.456.374-3.735 0-10.477-8.528-18.971-19.048-18.971-10.519 0-19.048 8.494-19.048 18.971s8.528 18.97 19.048 18.97c.987 0 1.949-.097 2.896-.241v-10.993c-1.082-.696-2.06-1.409-2.935-2.129zm37.318-.023h-29.853c-1.477 0-2.673 1.192-2.673 2.663v29.732c0 1.47 1.197 2.663 2.673 2.663h29.853c1.476 0 2.673-1.193 2.673-2.663v-29.733c0-1.47-1.197-2.662-2.673-2.662zm-8.032 27.807l-2.318-6.37h-8.985l-2.381 6.37h-2.885l8.271-21.153h3.123l8.299 21.153h-3.124zm-6.812-18.606l-3.599 9.867h7.199l-3.54-9.867h-.06z" sketch:type="MSShapeGroup" fill="#ED0088"/></svg>