<svg viewBox="0 0 72 72" xmlns="http://www.w3.org/2000/svg"><title>box-icon-block</title><path d="M35.528 6c-16.282 0-29.528 13.246-29.528 29.528 0 16.282 13.246 29.529 29.528 29.529 16.282 0 29.528-13.247 29.528-29.529s-13.246-29.528-29.528-29.528zm0 53.581c-5.269 0-10.143-1.708-14.109-4.592l33.281-33.969c3.059 4.037 4.88 9.061 4.88 14.507 0 13.261-10.79 24.054-24.052 24.054zm0-48.107c5.574 0 10.702 1.91 14.784 5.101l-33.431 34.123c-3.377-4.143-5.405-9.424-5.405-15.171 0-13.264 10.791-24.054 24.052-24.054z" fill="#D4D8D9"/></svg>