<svg width="72" height="72" viewBox="0 0 72 72" xmlns="http://www.w3.org/2000/svg" xmlns:sketch="http://www.bohemiancoding.com/sketch/ns"><title>box-icon-html</title><g sketch:type="MSArtboardGroup" fill="none"><path d="M56 51v9.04c0 3.286-2.729 5.96-6.082 5.96h-34.837c-3.353 0-6.082-2.674-6.082-5.96v-48.081c0-3.287 2.729-5.96 6.082-5.96h24.16c.553 0 1.079.226 1.454.623l14.779 15.675c.338.358.525.829.525 1.316v12.385h3.01c2.2 0 3.99 1.791 3.99 4v7c0 2.206-1.787 4-3.99 4h-3.01zm-3.917-15v-11.611l-.1-.106h-12.726c-.517 0-1.589-.409-1.589-.914v-13.456h-22.623c-1.173 0-2.128.932-2.128 2.078v48.018c0 1.145.955 2.078 2.128 2.078h34.911c1.173 0 2.128-.932 2.128-2.078v-9.009h-24.093c-2.2 0-3.99-1.791-3.99-4v-7c0-2.206 1.787-4 3.99-4h24.093zm-1.306-14.348h-10.444v-10.435l10.444 10.435z" fill="#ED0088" sketch:type="MSShapeGroup"/><path d="M28 39h1.5v3.408h3.9v-3.408h1.5v8.568h-1.5v-3.864h-3.9v3.864h-1.5v-8.568zm7.884 0h6.936v1.296h-2.724v7.272h-1.5v-7.272h-2.712v-1.296zm7.908 0h2.112l2.364 6.708h.024l2.304-6.708h2.088v8.568h-1.428v-6.612h-.024l-2.376 6.612h-1.236l-2.376-6.612h-.024v6.612h-1.428v-8.568zm10.692 0h1.5v7.272h4.356v1.296h-5.856v-8.568z" fill="#fff" sketch:type="MSShapeGroup"/></g></svg>