<svg width="72" height="72" viewBox="0 0 72 72" xmlns="http://www.w3.org/2000/svg" xmlns:sketch="http://www.bohemiancoding.com/sketch/ns"><title>box-icon-site-migration-city</title><desc>Created with Sketch.</desc><path d="M7.997 17.667c-1.103 0-1.997.887-1.997 2.006v2.988c0 1.108.892 2.006 1.997 2.006h47.003v4.998c0 1.658.947 2.054 2.121.881l8.879-8.879-8.97-9.785c-1.121-1.223-2.03-.876-2.03.787v4.998h-47.003zm-1.997 24.068l8.879 8.879c1.171 1.171 2.121.782 2.121-.881v-4.998h47.003c1.103 0 1.997-.887 1.997-2.006v-2.988c0-1.108-.892-2.006-1.997-2.006h-47.003v-4.998c0-1.658-.91-2.009-2.03-.787l-8.97 9.785zm30.044 8.241c.82-.829 1.864-1.244 3.131-1.244 1.695 0 2.935.556 3.719 1.668.433.624.665 1.251.697 1.88h-2.105c-.137-.483-.312-.848-.526-1.094-.383-.438-.95-.656-1.702-.656-.766 0-1.369.309-1.812.926-.442.618-.663 1.491-.663 2.622 0 1.13.234 1.977.701 2.54.467.563 1.061.844 1.781.844.738 0 1.301-.242 1.688-.725.214-.26.392-.649.533-1.169h2.085c-.182 1.098-.648 1.992-1.398 2.68-.75.688-1.71 1.032-2.881 1.032-1.449 0-2.589-.465-3.418-1.395-.829-.934-1.244-2.215-1.244-3.842 0-1.759.472-3.115 1.415-4.067zm11.061 9.023h-2.092v-10.076h2.092v10.076zm9.283-10.076v1.784h-3.015v8.292h-2.119v-8.292h-3.028v-1.784h8.162zm6.979 0h2.386l-3.37 6.289v3.787h-2.105v-3.787l-3.486-6.289h2.481l2.092 4.389 2.003-4.389z" sketch:type="MSShapeGroup" fill="#ED0088"/></svg>