<svg viewBox="0 0 72 72" xmlns="http://www.w3.org/2000/svg"><title>box-icon-settings</title><path d="M64.221 19.343l-3.524-.929c-.185-.588-.425-1.151-.709-1.687l1.842-3.16c.584-1.084.836-2.193 0-3.031-.836-.838-2.016-.571-3.031.001l-3.211 1.869c-.514-.264-1.056-.491-1.619-.662l-.948-3.601c-.355-1.179-.961-2.142-2.144-2.142-1.184 0-1.827 1.022-2.144 2.142l-.969 3.677c-.524.174-1.026.386-1.511.64l-3.298-1.922c-1.085-.584-2.194-.839-3.031 0-.838.836-.568 2.013 0 3.031l1.951 3.347c-.233.463-.437.942-.598 1.444l-3.747.986c-1.179.355-2.144.96-2.144 2.145 0 1.183 1.022 1.828 2.144 2.143l3.746.987c.162.498.365.98.599 1.445l-1.951 3.342c-.584 1.087-.838 2.197 0 3.036.836.835 2.014.566 3.031 0l3.298-1.922c.482.253.987.464 1.511.64l.969 3.672c.354 1.182.96 2.147 2.144 2.147 1.183 0 1.827-1.024 2.144-2.147l.948-3.595c.564-.178 1.104-.402 1.62-.665l3.209 1.87c1.084.583 2.194.835 3.031 0 .838-.839.568-2.019 0-3.033l-1.842-3.158c.285-.538.525-1.101.71-1.69l3.523-.929c1.179-.355 2.145-.959 2.145-2.143 0-1.184-1.024-1.828-2.145-2.144zm-13.243 6.358c-2.328 0-4.215-1.886-4.215-4.212 0-2.327 1.887-4.216 4.215-4.216 2.325 0 4.212 1.889 4.212 4.216s-1.887 4.212-4.212 4.212zm-6.629 18.289l-3.578-.942c-.107-.503-.241-.998-.399-1.482l2.627-2.607c.849-.896 1.38-1.904.787-2.929-.594-1.025-1.799-1.07-2.93-.784l-3.584.977c-.339-.377-.697-.735-1.074-1.074l.977-3.588c.283-1.195.24-2.336-.786-2.925-1.025-.593-2.091-.029-2.928.784l-2.607 2.628c-.482-.157-.977-.293-1.482-.398l-.943-3.579c-.354-1.177-.959-2.143-2.143-2.143-1.183 0-1.827 1.021-2.143 2.143l-.943 3.579c-.504.105-.997.241-1.483.398l-2.606-2.628c-.898-.844-1.902-1.376-2.928-.784-1.026.589-1.071 1.798-.786 2.925l.98 3.587c-.378.34-.737.696-1.076 1.075l-3.585-.977c-1.198-.284-2.336-.241-2.927.784-.594 1.025-.029 2.094.782 2.929l2.628 2.607c-.157.484-.291.978-.398 1.482l-3.577.942c-1.179.355-2.144.96-2.144 2.145 0 1.183 1.022 1.827 2.144 2.142l3.577.945c.107.503.241.996.398 1.48l-2.628 2.607c-.845.896-1.376 1.905-.782 2.928.59 1.027 1.796 1.071 2.927.782l3.585-.973c.339.376.698.735 1.075 1.073l-.978 3.587c-.282 1.198-.24 2.336.785 2.928 1.027.593 2.094.029 2.928-.784l2.607-2.629c.485.157.978.293 1.483.399l.943 3.577c.354 1.179.96 2.143 2.143 2.143 1.184 0 1.827-1.022 2.143-2.143l.943-3.577c.504-.107 1-.242 1.483-.4l2.606 2.628c.896.847 1.904 1.379 2.929.786 1.026-.591 1.07-1.799.785-2.928l-.977-3.589c.377-.336.735-.696 1.074-1.07l3.584.973c1.201.284 2.336.242 2.93-.782.593-1.022.027-2.093-.787-2.928l-2.627-2.607c.158-.485.293-.977.399-1.48l3.578-.945c1.179-.353 2.143-.959 2.143-2.142 0-1.185-1.021-1.827-2.143-2.145zm-18.062 8.268c-3.38 0-6.121-2.742-6.121-6.122 0-3.381 2.742-6.122 6.121-6.122 3.381 0 6.122 2.742 6.122 6.122 0 3.381-2.742 6.122-6.122 6.122z" fill="#ED0088"/></svg>