<svg width="72" height="72" viewBox="0 0 72 72" xmlns="http://www.w3.org/2000/svg" xmlns:sketch="http://www.bohemiancoding.com/sketch/ns"><title>box-icon-site-migration-jet</title><desc>Created with Sketch.</desc><path d="M7.997 17.667c-1.103 0-1.997.887-1.997 2.006v2.988c0 1.108.892 2.006 1.997 2.006h47.003v4.998c0 1.658.947 2.054 2.121.881l8.879-8.879-8.97-9.785c-1.121-1.223-2.03-.876-2.03.787v4.998h-47.003zm-1.997 24.068l8.879 8.879c1.171 1.171 2.121.782 2.121-.881v-4.998h47.003c1.103 0 1.997-.887 1.997-2.006v-2.988c0-1.108-.892-2.006-1.997-2.006h-47.003v-4.998c0-1.658-.91-2.009-2.03-.787l-8.97 9.785zm36.297 13.444v.232c.018.779.104 1.327.256 1.644.153.317.48.475.981.475.497 0 .825-.173.984-.52.096-.205.144-.551.144-1.039v-7.048h2.105v7.014c0 .857-.148 1.536-.444 2.037-.501.848-1.406 1.271-2.714 1.271s-2.185-.343-2.632-1.029c-.447-.686-.67-1.621-.67-2.806v-.232h1.989zm14.007-4.471h-5.332v2.14h4.895v1.75h-4.895v2.591h5.578v1.812h-7.636v-10.076h7.39v1.784zm9.208-1.784v1.784h-3.015v8.292h-2.119v-8.292h-3.028v-1.784h8.162z" sketch:type="MSShapeGroup" fill="#ED0088"/></svg>