<svg width="18" height="18" viewBox="0 0 18 18" xmlns="http://www.w3.org/2000/svg" xmlns:sketch="http://www.bohemiancoding.com/sketch/ns"><title>icon-moymir</title><desc>Created with Sketch.</desc><path d="M11.128 12.506c-.134.148-.299.3-.503.448-.2.152-.429.289-.685.41-.253.121-.531.217-.836.293-.306.072-.629.11-.963.11-.46 0-.886-.072-1.272-.213-.39-.141-.724-.341-1.012-.599-.285-.258-.506-.572-.664-.941-.158-.365-.235-.779-.235-1.237 0-.503.091-.954.278-1.347.186-.393.443-.727.777-.999.33-.272.731-.482 1.191-.627.464-.145.977-.217 1.54-.217.457 0 .854.028 1.181.079.33.055.615.114.854.172v-.372c0-.217-.039-.424-.113-.627-.077-.203-.197-.379-.362-.534-.165-.155-.38-.283-.647-.376-.271-.093-.594-.141-.981-.141-.471 0-.942.052-1.409.155-.467.107-.974.258-1.525.462v-1.771c.2-.096.425-.179.671-.258.246-.076.51-.145.787-.2.278-.059.566-.103.861-.134.295-.034.591-.052.882-.052.696 0 1.3.083 1.821.248.517.165.949.393 1.293.686.341.293.601.637.777 1.037.176.396.264.827.264 1.292v3.938c0 .148.007.282.025.403.017.121.053.227.105.313.049.09.123.155.211.203.088.045.204.069.341.069.323 0 .626-.093.907-.283.285-.189.527-.455.735-.803.207-.348.369-.772.492-1.271.12-.496.179-1.058.179-1.678 0-1.092-.186-2.046-.555-2.859-.373-.816-.875-1.499-1.511-2.043-.633-.548-1.374-.954-2.225-1.226-.847-.269-1.747-.403-2.703-.403-1.283 0-2.387.207-3.307.62-.921.417-1.673.968-2.26 1.664-.587.693-1.019 1.488-1.297 2.387s-.418 1.833-.418 2.804c0 1.037.158 1.998.474 2.884.316.885.791 1.654 1.427 2.301.633.651 1.427 1.161 2.383 1.526.952.369 2.07.551 3.346.551.569 0 1.125-.028 1.663-.086.538-.055 1.047-.131 1.529-.224.481-.093.924-.2 1.332-.317.411-.117.766-.238 1.068-.365v1.616c-.309.121-.678.241-1.107.358-.429.117-.893.221-1.392.314-.496.09-1.016.162-1.554.217-.538.052-1.072.079-1.603.079-.886 0-1.729-.086-2.531-.258-.805-.172-1.554-.427-2.253-.768-.696-.338-1.325-.758-1.894-1.251-.566-.496-1.047-1.068-1.445-1.719-.401-.648-.71-1.371-.928-2.167-.221-.792-.33-1.661-.33-2.594 0-1.361.214-2.608.64-3.734.425-1.127 1.033-2.095 1.824-2.904.787-.81 1.743-1.433 2.868-1.878 1.121-.444 2.38-.668 3.775-.668 1.283 0 2.464.193 3.539.582 1.076.386 2 .93 2.78 1.633.78.706 1.388 1.55 1.824 2.532.436.982.654 2.074.654 3.273 0 .93-.112 1.75-.341 2.463-.225.713-.541 1.316-.946 1.802-.408.489-.886.858-1.438 1.109-.552.248-1.156.372-1.81.372-.334 0-.622-.031-.865-.089-.239-.062-.446-.148-.622-.258-.176-.11-.32-.245-.432-.4-.112-.152-.207-.324-.285-.513h-.039zm-.351-2.959c-.218-.048-.464-.093-.738-.138-.274-.045-.569-.065-.882-.065-.562 0-1.009.107-1.339.324-.334.217-.499.558-.499 1.023 0 .217.039.403.113.562.077.162.176.29.302.393.127.1.278.176.446.227.172.052.351.076.534.076.232 0 .453-.031.661-.09.211-.062.401-.141.576-.234.176-.096.331-.2.471-.313.141-.117.26-.227.355-.334v-1.43z" sketch:type="MSShapeGroup" fill="#9E9EA8"/></svg>