<svg width="18" height="18" viewBox="0 0 18 18" xmlns="http://www.w3.org/2000/svg" xmlns:sketch="http://www.bohemiancoding.com/sketch/ns"><title>icon-cabinet</title><path d="M17.157 17.998h-16.312c-.466 0-.844-.368-.844-.823-.001-.002-.001-2.999 2.246-4.089 1.422-.69.874-.13 2.62-.835 1.745-.705 2.159-.95 2.159-.95l.017-1.625s-.654-.487-.857-2.016c-.409.115-.544-.468-.568-.84-.022-.359-.237-1.479.262-1.378-.102-.749-.175-1.423-.139-1.781.125-1.255 1.365-2.566 3.275-2.662 2.246.095 3.136 1.406 3.261 2.661.037.358-.044 1.033-.146 1.78.499-.1.282 1.019.258 1.378-.022.371-.16.953-.568.838-.204 1.528-.858 2.012-.858 2.012l.015 1.616s.413.23 2.159.935c1.745.706 1.198.178 2.62.868 2.246 1.09 2.246 4.087 2.246 4.087 0 .456-.378.825-.844.825z" sketch:type="MSShapeGroup" fill="#9E9EA8"/></svg>