<svg viewBox="0 0 72 72" xmlns="http://www.w3.org/2000/svg"><title>box-icon-docs</title><path d="M63.828 23.363c-.907-.946-2.201-1.488-3.55-1.488h-2.495l-1.802-8.894c-.066-.317-.254-.595-.526-.776-.27-.18-.602-.244-.919-.18l-26.46 5.364c-.853-.763-1.975-1.23-3.206-1.23h-11.899c-2.66 0-4.823 2.164-4.823 4.823v1.699c-1.315.872-2.148 2.358-2.148 4.018v26.911l.001.022-.001.011c0 2.642 2.164 4.793 4.822 4.793h44.82l.49-.025.086-.014.39-.06.06-.014.406-.104.02-.008c1.656-.52 2.924-1.907 3.271-3.62l.004-.017.065-.422.011-.118.017-.19 4.612-26.831.028-.26c.053-1.272-.398-2.477-1.272-3.386zm-10.006-8.694l1.46 7.206h-25.59v-.894c0-.48-.074-.942-.204-1.379l24.334-4.933zm2.59 38.628l-.029.344c0 .392-.331.709-.742.709h-44.82c-.365 0-.672-.257-.728-.592l4.596-26.753c.062-.367.178-1.05 1.464-1.05h44.125c.239 0 .466.088.604.233.082.085.126.184.137.302l-4.607 26.806z" fill="#D4D8D9"/></svg>