<svg width="72" height="72" viewBox="0 0 72 72" xmlns="http://www.w3.org/2000/svg" xmlns:sketch="http://www.bohemiancoding.com/sketch/ns"><title>box-icon-pdf</title><g sketch:type="MSArtboardGroup" fill="none"><path d="M57 51v9.04c0 3.286-2.729 5.96-6.082 5.96h-34.837c-3.353 0-6.082-2.674-6.082-5.96v-48.081c0-3.287 2.729-5.96 6.082-5.96h24.16c.553 0 1.079.226 1.454.623l14.779 15.675c.338.358.525.829.525 1.316v12.385h2.001c2.212 0 3.999 1.791 3.999 4v7c0 2.206-1.791 4-3.999 4h-2.001zm-3.917-15v-11.611l-.1-.106h-12.726c-.517 0-1.589-.409-1.589-.914v-13.456h-22.623c-1.173 0-2.128.932-2.128 2.078v48.018c0 1.145.955 2.078 2.128 2.078h34.911c1.173 0 2.128-.932 2.128-2.078v-9.009h-16.084c-2.212 0-3.999-1.791-3.999-4v-7c0-2.206 1.791-4 3.999-4h16.084zm-1.306-14.348h-10.444v-10.435l10.444 10.435z" fill="#ED0088" sketch:type="MSShapeGroup"/><path d="M37 39h3.78c.608 0 1.104.088 1.488.264.384.176.68.396.888.66.208.264.35.552.426.864.076.312.114.6.114.864s-.038.55-.114.858c-.076.308-.218.594-.426.858s-.504.482-.888.654c-.384.172-.88.258-1.488.258h-2.28v3.288h-1.5v-8.568zm1.5 4.056h2.196c.168 0 .34-.024.516-.072.176-.048.338-.126.486-.234.148-.108.268-.252.36-.432.092-.18.138-.406.138-.678 0-.28-.04-.512-.12-.696-.08-.184-.188-.33-.324-.438-.136-.108-.292-.182-.468-.222-.176-.04-.364-.06-.564-.06h-2.22v2.832zm6.504-4.056h3.552c.656 0 1.224.112 1.704.336.48.224.872.53 1.176.918.304.388.53.842.678 1.362.148.52.222 1.076.222 1.668 0 .592-.074 1.148-.222 1.668-.148.52-.374.974-.678 1.362-.304.388-.696.694-1.176.918-.48.224-1.048.336-1.704.336h-3.552v-8.568zm1.5 7.344h1.476c.584 0 1.062-.078 1.434-.234.372-.156.664-.372.876-.648.212-.276.356-.6.432-.972.076-.372.114-.774.114-1.206 0-.432-.038-.834-.114-1.206-.076-.372-.22-.696-.432-.972s-.504-.492-.876-.648c-.372-.156-.85-.234-1.434-.234h-1.476v6.12zm7.164-7.344h5.916v1.296h-4.416v2.244h3.876v1.224h-3.876v3.804h-1.5v-8.568z" fill="#fff" sketch:type="MSShapeGroup"/></g></svg>