<svg viewBox="0 0 72 72" xmlns="http://www.w3.org/2000/svg" xmlns:sketch="http://www.bohemiancoding.com/sketch/ns"><title>box-icon-missed-call</title><path d="M40.605 6h-15.604c-2.752 0-5.001 2.252-5.001 5v50.002c0 2.75 2.25 4.998 5.001 4.998h21.998c2.75 0 5-2.248 5-4.998v-37.043c-.33.027-.663.041-1 .041-.337 0-.67-.014-1-.041v32.041h-28v-40h17.683c-.442-1.251-.683-2.597-.683-4h-6.002c-.55 0-.998-.449-.998-1.001 0-.553.448-.999.998-.999h6.001l.165.013c.24-1.441.737-2.795 1.442-4.013zm-4.607 58c-1.656 0-2.999-1.342-2.999-2.999 0-1.658 1.342-3.001 2.999-3.001 1.659 0 3.001 1.343 3.001 3.001 0 1.657-1.342 2.999-3.001 2.999zm15.001-43c4.971 0 9-4.029 9-9s-4.029-9-9-9-9 4.029-9 9 4.029 9 9 9zm-3.327-10.88v-1.326c.615-.027 1.046-.068 1.292-.123.392-.087.711-.26.957-.52.169-.178.296-.415.383-.711.05-.178.075-.31.075-.396h1.62v9.912h-1.996v-6.836h-2.331z" sketch:type="MSShapeGroup" fill="#ED0088"/></svg>