<svg viewBox="0 0 72 72" xmlns="http://www.w3.org/2000/svg" xmlns:sketch="http://www.bohemiancoding.com/sketch/ns"><title>box-icon-pay-mobile</title><path d="M46 39.928v22.072c0 2.21-1.79 4-4 4h-24c-2.21 0-4-1.79-4-4v-52c0-2.21 1.79-4 4-4h24c2.21 0 4 1.79 4 4v17.89c-.685.239-1.352.51-2 .812v-12.702h-28v40h28v-15.775c.639-.115 1.305-.213 2-.297zm-15.367 4.072h-12.633v8h24v-8h-6.632c-1.692 1.445-3.136 3.318-4.497 5.724-.561.992-2.079.423-1.85-.694.039-.188.118-.525.243-.989.206-.764.469-1.612.793-2.525.18-.506.372-1.012.576-1.517zm2.367 17c0 1.656-1.344 3-3 3s-3-1.344-3-3 1.344-3 3-3 3 1.344 3 3zm0-51h-6c-.552 0-1 .448-1 1s.448 1 1 1h6c.552 0 1-.448 1-1s-.448-1-1-1zm-11.36 18.832h1.112v-3.16l.122-.544-.386.472-.71.488-.442-.6 1.824-1.472h.584v4.816h1.088v.88h-3.192v-.88zm4.05-1.928c0-.982.168-1.71.504-2.188.336-.478.818-.716 1.446-.716.672 0 1.166.236 1.482.708.314.472.47 1.204.47 2.196 0 .986-.168 1.72-.508 2.2-.338.48-.822.72-1.452.72-.666 0-1.158-.252-1.472-.756-.314-.504-.47-1.226-.47-2.164zm4.534 0c0-.982.168-1.71.504-2.188.336-.478.818-.716 1.45-.716.672 0 1.164.236 1.478.708.314.472.472 1.204.472 2.196 0 .986-.17 1.72-.508 2.2-.338.48-.822.72-1.452.72-.666 0-1.156-.252-1.47-.756-.316-.504-.474-1.226-.474-2.164zm4.536 0c0-.982.168-1.71.504-2.188.336-.478.818-.716 1.448-.716.672 0 1.164.236 1.48.708.314.472.472 1.204.472 2.196 0 .986-.17 1.72-.508 2.2-.34.48-.822.72-1.452.72-.666 0-1.158-.252-1.472-.756-.314-.504-.472-1.226-.472-2.164zm-8.032 0c0 .65.07 1.154.214 1.508.14.354.372.532.698.532.316 0 .546-.162.692-.488.146-.326.22-.842.22-1.552 0-.646-.07-1.144-.208-1.496-.138-.352-.376-.528-.712-.528-.32 0-.55.166-.69.496-.144.332-.214.84-.214 1.528zm9.072 0c0 .65.07 1.154.212 1.508.14.354.374.532.7.532.316 0 .546-.162.692-.488.146-.326.218-.842.218-1.552 0-.646-.068-1.144-.206-1.496-.138-.352-.378-.528-.712-.528-.32 0-.552.166-.692.496-.142.332-.212.84-.212 1.528zm-4.534 0c0 .65.07 1.154.21 1.508.142.354.376.532.702.532.314 0 .544-.162.692-.488.146-.326.218-.842.218-1.552 0-.646-.068-1.144-.208-1.496-.138-.352-.376-.528-.712-.528-.318 0-.55.166-.692.496-.14.332-.21.84-.21 1.528zm22.678 11.636v9.682l16.056-14.868-16.056-14.344v8.592c-19.5 0-23.944 21.63-23.944 21.63 5.518-9.754 13.36-10.692 23.944-10.692z" sketch:type="MSShapeGroup" fill="#ED0088"/></svg>