<svg viewBox="0 0 72 72" xmlns="http://www.w3.org/2000/svg"><title>box-icon-unlock</title><path d="M22.522 33.95l-.036-.356v-13.396c0-7.829 6.323-14.198 14.094-14.198 7.771 0 14.093 6.369 14.093 14.198v1.305c0 2.001-1.609 3.623-3.597 3.623s-3.596-1.621-3.596-3.623v-1.305c0-3.832-3.096-6.951-6.9-6.951-3.805 0-6.9 3.118-6.9 6.951v13.396l-.035.356h22.656c2.591 0 4.7 2.126 4.7 4.735v22.579c0 2.613-2.109 4.736-4.7 4.736h-32.601c-2.591 0-4.7-2.123-4.7-4.736v-22.579c0-2.609 2.109-4.735 4.7-4.735h2.822zm-2.822 28.426h32.601c.608 0 1.104-.498 1.104-1.112v-22.579c0-.612-.496-1.111-1.104-1.111h-32.601c-.608 0-1.103.499-1.103 1.111v22.579c0 .614.494 1.112 1.103 1.112zm18.992-10.889v5.223h-5.383v-5.223c0-1.497 1.205-2.712 2.692-2.712s2.692 1.215 2.692 2.712z" fill="#D4D8D9"/></svg>