<svg viewBox="0 0 72 72" xmlns="http://www.w3.org/2000/svg"><title>box-icon-exchange</title><path d="M37.797 6h-12.795c-2.752 0-5.001 2.252-5.001 5v50.002c0 2.75 2.25 4.998 5.001 4.998h21.998c2.75 0 5-2.248 5-4.998v-35.039c-.33.025-.664.038-1 .038-.336 0-.67-.013-1-.038v30.038h-28v-40h15.797c-.417-1.264-.68-2.606-.766-4h-4.032c-.55 0-.998-.449-.998-1.001 0-.553.448-.999.998-.999h4.032c.086-1.394.349-2.736.766-4zm-1.798 58c-1.656 0-2.999-1.342-2.999-2.999 0-1.658 1.342-3.001 2.999-3.001 1.659 0 3.001 1.343 3.001 3.001 0 1.657-1.342 2.999-3.001 2.999zm25.778-48.146l-3.303-4.488c-.093-.126-.242-.201-.4-.201-.158 0-.306.075-.399.201l-3.304 4.487c-.109.149-.125.345-.041.509.084.163.255.266.441.266h1.83c-.399.666-.906 1.273-1.524 1.787-1.438 1.196-3.262 1.768-5.136 1.611-1.823-.153-3.49-.984-4.695-2.34-.42-.472-1.149-.519-1.627-.105-.479.414-.527 1.133-.107 1.606 1.6 1.8 3.814 2.903 6.233 3.106.271.023.54.034.809.034 2.199 0 4.308-.756 6.01-2.172 1.164-.968 2.051-2.176 2.615-3.527h2.199c.186 0 .356-.103.441-.266.084-.163.069-.36-.041-.508zm-18.366-1.015l3.304-4.489c.109-.148.125-.345.04-.508-.084-.164-.254-.267-.44-.267h-1.848c1.341-2.259 3.898-3.628 6.668-3.397 1.837.154 3.514.996 4.722 2.37.417.475 1.146.526 1.627.115.481-.412.533-1.131.115-1.606-1.603-1.824-3.829-2.942-6.268-3.147-4.128-.349-7.905 1.985-9.434 5.665h-2.189c-.186 0-.357.103-.441.267-.084.163-.069.36.041.508l3.303 4.489c.094.126.242.201.4.201.158 0 .307-.075.4-.201z" fill="#D4D8D9"/></svg>