<svg viewBox="0 0 72 72" xmlns="http://www.w3.org/2000/svg"><title>box-icon-addressbook</title><path d="M55.917 6h-39.834c-1.151 0-2.083.936-2.083 2.091v13.578h3.009c1.417 0 2.566 1.156 2.566 2.579 0 1.425-1.148 2.58-2.566 2.58h-3.009v6.562h3.009c1.417 0 2.566 1.153 2.566 2.579 0 1.425-1.148 2.58-2.566 2.58h-3.009v6.562h3.009c1.417 0 2.566 1.153 2.566 2.579 0 1.425-1.148 2.579-2.566 2.579h-3.009v13.658c0 1.155.932 2.09 2.083 2.09h39.834c1.152 0 2.083-.936 2.083-2.09v-55.836c0-1.156-.931-2.091-2.083-2.091zm-6.354 40.476c-2.451 1.549-4.884 2.199-7.228 1.927-4.263-.496-6.68-3.836-6.781-3.977l-7.458-9.449-.033-.043c-1.903-2.856-2.517-5.527-1.826-7.932 1.021-3.562 4.53-5.171 4.68-5.236.295-.133.641-.028.818.241l4.519 6.97c.168.258.135.6-.079.823-2.238 2.307-1.327 3.692-1.288 3.749.017.022 3.13 4.053 4.617 5.849.188.225.395.347.654.375.942.109 2.28-.984 2.673-1.379.13-.129.31-.198.494-.191.179.007.355.093.473.235l5.916 7.054c.124.143.178.336.15.524-.029.191-.139.356-.301.459z" fill="#D4D8D9"/></svg>