<svg viewBox="0 0 72 72" xmlns="http://www.w3.org/2000/svg"><title>box-icon-handshake</title><path d="M36.935 28l-.435.186.359-.157.076-.029zm1.379 25.121l-.03.033-.029.038c-.756.957-2.142 1.128-3.107.369l-.445-.356-.485-.387.12-.286 1.468-4.254.199.162.457.366.23.182.291.237.165.133.371.296.43.343c.962.763 1.122 2.158.365 3.123zm17.902-7.628l-.057.076c-.759.959-2.156 1.124-3.12.365l-.386-.303-3.541-2.791-.656-.521c-.6-.466-1.223-.957-1.856-1.457l-.236-.184-1.08-.855c-3.581-2.819-7.174-5.649-7.382-5.82-.665-.532-1.367.362-.697.893.363.287 3.995 3.154 7.241 5.71l.277.211.599.474.726.57.322.251c.857.674 1.635 1.284 2.249 1.774l.363.282.416.327.184.147.012.006.007.011.447.349c.964.759 1.125 2.156.369 3.119l-.022.019-.011.021-.026.027c-.759.964-2.154 1.127-3.115.366l-.344-.27-.111-.086-.03-.025-.166-.129-.087-.067-.098-.079-.241-.191-.047-.038-.769-.603-.197-.154-.416-.327-.451-.353-.391-.308-2.813-2.215c-3.094-2.429-6.342-4.996-6.684-5.267-.669-.528-1.379.36-.706.894.394.311 3.791 3.006 6.527 5.176l.722.572.599.475.539.431.786.619.253.2.135.111.235.182.344.274.349.275c.958.757 1.125 2.156.365 3.116l-.029.038-.004.008-.024.033c-.758.96-2.156 1.118-3.119.356l-.345-.274-.098-.075-.026-.019-.274-.219-2.094-1.654-.614-.485-1.052-.843-.751-.598c.041-.541-.063-1.08-.307-1.578-.367-.75-1.002-1.309-1.791-1.579-.324-.11-.664-.171-1.009-.171-.316 0-.627.052-.919.139l-1.101-.87-.116-.275c-.366-.749-1.001-1.309-1.79-1.579-.328-.111-.664-.165-1.01-.165-1.001 0-1.92.476-2.496 1.249-.245-.99-.973-1.846-2.011-2.201-.327-.111-.669-.167-1.009-.167-1.047 0-1.999.529-2.568 1.363-.252-.981-.976-1.819-2.002-2.172-.329-.111-.669-.17-1.014-.17-1.329 0-2.514.846-2.945 2.105l-.02.068c-.199-.068-.394-.151-.536-.229l-7.057-4.058c-.27-.154-.37-.507-.216-.781l7.548-13.597c.15-.274.514-.403.806-.291l3.576 1.383c.291.112.773.129 1.071.034l8.516-2.738c.298-.096.793-.124 1.1-.066l.665.129c.307.057.353.258.1.445l-.919.686-.024.025c-1.959 1.451-4.637 3.415-5.866 4.22-1.234.806-1.737 2.066-1.35 3.364.49 1.641 2.239 2.83 4.154 2.83.635 0 1.263-.129 1.869-.382 1.811-.755 4.474-1.882 6.687-2.82l.079-.025.839-.363 1.452-.619.357-.157.079-.029h.009c.28-.083.656-.018.874.158l2.448 1.935.892.703 7.494 5.906 6.748 5.316.449.353c.958.757 1.121 2.157.36 3.117zm-18.303 2.991l-1.054-.838.003-.005 1.052.844zm6.809-7.669l-.28-.211.007-.005.273.216zm-13.6-19.397c.25-.187.699-.42.994-.516l8.286-2.692c.297-.097.771-.064 1.054.072l10.621 5.146c.28.136.751.154 1.04.041l3.577-1.384c.291-.113.654.019.806.292l7.549 13.597c.154.274.069.647-.181.831l-6.975 5.079c-.253.182-.66.176-.904-.019l-18.829-14.973c-.244-.194-.677-.253-.964-.131 0 0-6.503 2.767-10.158 4.294-3.26 1.364-6.361-2.245-3.702-3.987 2.103-1.378 7.787-5.651 7.787-5.651zm2.623 23.252c1.196.409 1.83 1.708 1.421 2.901l-1.614 4.688c-.409 1.193-1.707 1.828-2.9 1.418-1.194-.409-1.828-1.708-1.419-2.899l1.61-4.691c.409-1.192 1.707-1.827 2.902-1.417zm-4.936-2.751c1.195.409 1.829 1.708 1.421 2.9l-1.613 4.691c-.409 1.193-1.708 1.827-2.901 1.417-1.193-.409-1.828-1.708-1.419-2.902l1.61-4.688c.409-1.194 1.707-1.829 2.902-1.418zm-5.517-1.118c1.191.409 1.827 1.709 1.418 2.9l-.974 2.835c-.409 1.194-1.709 1.827-2.901 1.419-1.194-.409-1.827-1.709-1.419-2.9l.973-2.836c.41-1.192 1.708-1.827 2.903-1.418zm-5.581-.979c1.193.411 1.827 1.71 1.418 2.902l-.351 1.026c-.41 1.193-1.709 1.829-2.902 1.419-1.193-.41-1.827-1.71-1.418-2.903l.351-1.025c.409-1.193 1.709-1.827 2.902-1.419z" fill="#D4D8D9"/></svg>