<svg viewBox="0 0 72 72" xmlns="http://www.w3.org/2000/svg"><path d="M34.571 44.453c-4.054-.68-7.143-4.206-7.143-8.453 0-4.734 3.838-8.571 8.571-8.571 4.247 0 7.773 3.089 8.453 7.143h4.523c.602-3.589 3.435-6.422 7.024-7.024v-4.523c-4.054-.68-7.143-4.206-7.143-8.453 0-4.734 3.838-8.571 8.571-8.571 4.734 0 8.571 3.838 8.571 8.571 0 4.247-3.089 7.773-7.143 8.453v4.523c4.054.68 7.143 4.206 7.143 8.453 0 4.734-3.838 8.571-8.571 8.571-4.247 0-7.773-3.089-8.453-7.143h-4.523c-.602 3.589-3.435 6.422-7.024 7.024v4.523c4.054.68 7.143 4.206 7.143 8.453 0 4.734-3.838 8.571-8.571 8.571-4.247 0-7.773-3.089-8.453-7.143h-4.523c-.68 4.054-4.206 7.143-8.453 7.143-4.734 0-8.571-3.838-8.571-8.571 0-4.734 3.838-8.571 8.571-8.571 4.247 0 7.773 3.089 8.453 7.143h4.523c.602-3.589 3.435-6.422 7.024-7.024v-4.523zm-20-21.31c4.734 0 8.571-3.838 8.571-8.571 0-4.734-3.838-8.571-8.571-8.571-4.734 0-8.571 3.838-8.571 8.571 0 4.734 3.838 8.571 8.571 8.571zm21.429 0c4.734 0 8.571-3.838 8.571-8.571 0-4.734-3.838-8.571-8.571-8.571-4.734 0-8.571 3.838-8.571 8.571 0 4.734 3.838 8.571 8.571 8.571zm-21.429 21.429c4.734 0 8.571-3.838 8.571-8.571 0-4.734-3.838-8.571-8.571-8.571-4.734 0-8.571 3.838-8.571 8.571 0 4.734 3.838 8.571 8.571 8.571zm42.857 21.429c4.734 0 8.571-3.838 8.571-8.571 0-4.734-3.838-8.571-8.571-8.571-4.734 0-8.571 3.838-8.571 8.571 0 4.734 3.838 8.571 8.571 8.571z" fill="#D4D8D9"/></svg>