<svg viewBox="0 0 72 72" xmlns="http://www.w3.org/2000/svg"><title>box-icon-tie</title><path d="M41.444 26.4l2.495 25.77 3.912 1.638 2-3.463-8.406-23.945zm-2.179-9.469c1.492-2.648 3.8-7.423 1.946-8.828-.238-.182-.49-.34-.747-.485l-.154-.088c-.248-.133-.5-.254-.757-.359l-.148-.058c-.241-.094-.48-.181-.722-.253l-.087-.029c-.26-.074-.517-.137-.769-.193l-.159-.034c-.246-.049-.483-.094-.71-.124l-.092-.012-.6-.071-.1-.008-.539-.034-.103-.005-.405-.007-.186.002h-.048l-.077.001-.033.001-.031.002-.031-.002-.034-.001-.076-.001h-.049l-.186-.002-.403.007-.104.005-.538.034-.1.008-.601.071-.092.012c-.226.03-.466.074-.71.124l-.16.034c-.251.056-.507.119-.768.193l-.082.026c-.242.074-.489.162-.732.258l-.141.054c-.259.106-.511.227-.761.36l-.15.088c-.255.145-.508.302-.749.485-1.871 1.421.506 6.283 1.996 8.914 2.96-.484 6.026-.514 8.989-.085zm-.948 3.164l-.081-.816c-2.312-.274-4.68-.25-6.989.076l-3.772 38.965 7.501 7.368 7.04-7.368-3.7-38.225z" fill="#ED0088"/></svg>