<svg width="18" height="18" viewBox="0 0 18 18" xmlns="http://www.w3.org/2000/svg" xmlns:sketch="http://www.bohemiancoding.com/sketch/ns"><title>icon-odnoklassniki</title><desc>Created with Sketch.</desc><path d="M14 4.5c0-2.485-2.015-4.5-4.5-4.5s-4.5 2.015-4.5 4.5 2.015 4.5 4.5 4.5 4.5-2.015 4.5-4.5zm-4.535-2.196c1.25 0 2.263.999 2.263 2.232 0 1.232-1.013 2.231-2.263 2.231s-2.263-.999-2.263-2.231c0-1.232 1.013-2.232 2.263-2.232zm3.423 7.1c-1.3 1.016-3.388 1.016-3.388 1.016s-2.088 0-3.388-1.016c-.962-.751-1.686-.318-1.947.202-.456.907.059 1.346 1.221 2.085.992.631 2.355.867 3.236.956l-.735.729-2.727 2.704c-.414.411-.414 1.077 0 1.488l.125.124c.207.205.477.308.748.308.275 0 .546-.103.752-.308l2.727-2.704 2.728 2.704c.414.411 1.086.411 1.501 0l.125-.124c.415-.411.414-1.077 0-1.488l-3.464-3.435c.881-.09 2.23-.327 3.213-.953 1.161-.739 1.676-1.178 1.221-2.085-.261-.52-.985-.953-1.947-.202z" sketch:type="MSShapeGroup" fill="#9E9EA8"/></svg>